<?xml version="1.0" standalone="no"?>
<!DOCTYPE svg PUBLIC "-//W3C//DTD SVG 20010904//EN"
 "http://www.w3.org/TR/2001/REC-SVG-20010904/DTD/svg10.dtd">
<svg version="1.0" xmlns="http://www.w3.org/2000/svg"
 width="192.000000pt" height="192.000000pt" viewBox="0 0 192.000000 192.000000"
 preserveAspectRatio="xMidYMid meet">

<g transform="translate(0.000000,192.000000) scale(0.100000,-0.100000)"
fill="#000000" stroke="none">
<path d="M153 1673 c3 -10 9 -34 12 -53 17 -82 75 -153 155 -189 38 -17 66
-21 183 -21 149 0 192 -10 221 -51 27 -40 21 -86 -18 -125 l-34 -34 -161 0
c-185 0 -177 5 -140 -94 38 -102 140 -166 267 -166 72 0 117 -27 133 -80 10
-32 9 -44 -7 -77 -34 -69 -52 -73 -352 -73 -246 0 -263 -1 -258 -17 2 -10 10
-37 17 -61 17 -58 77 -124 137 -150 47 -21 66 -22 403 -22 l354 -1 -3 376 c-2
206 -1 375 2 375 3 0 73 -79 157 -175 l151 -175 45 40 c62 54 126 74 224 68
l79 -5 0 364 0 363 -27 -6 c-83 -20 -149 -63 -191 -127 -26 -40 -27 -44 -32
-231 l-5 -190 -217 255 c-149 176 -228 261 -255 274 -36 19 -62 20 -441 23
-384 3 -403 2 -399 -15z"/>
<path d="M1525 843 c-77 -40 -109 -99 -103 -189 5 -76 38 -125 109 -162 82
-43 191 -13 245 67 30 46 40 116 24 166 -16 47 -66 104 -107 121 -43 19 -131
17 -168 -3z"/>
<path d="M252 388 c-7 -7 -12 -42 -12 -85 l0 -73 54 0 c36 0 60 5 70 16 18 17
21 50 6 59 -5 3 -7 20 -3 37 5 23 2 34 -12 45 -23 16 -87 17 -103 1z m88 -38
c0 -14 -7 -20 -24 -20 -38 0 -41 -28 -3 -32 21 -2 33 -9 35 -20 3 -15 -4 -18
-37 -18 l-41 0 0 55 0 55 35 0 c28 0 35 -4 35 -20z"/>
<path d="M455 390 c-6 -9 -55 -150 -55 -157 0 -2 6 -3 14 -3 8 0 23 27 37 65
12 36 26 65 30 65 4 0 10 -11 13 -24 3 -13 9 -31 12 -39 4 -11 -2 -16 -22 -19
-40 -4 -44 -28 -5 -28 17 0 40 -5 51 -12 10 -7 21 -10 24 -7 6 6 -41 139 -56
156 -13 16 -34 17 -43 3z"/>
<path d="M597 393 c-4 -3 -7 -42 -7 -85 l0 -78 45 0 c36 0 52 6 72 26 22 22
25 32 20 67 -4 26 -14 49 -27 59 -22 18 -90 25 -103 11z m91 -35 c7 -7 12 -26
12 -43 0 -40 -16 -55 -57 -55 l-33 0 0 55 0 55 33 0 c18 0 38 -5 45 -12z"/>
<path d="M773 393 c-9 -3 -13 -30 -13 -84 0 -64 3 -79 15 -79 12 0 15 15 15
71 l0 70 38 -3 c30 -2 38 -7 40 -26 3 -18 -4 -26 -32 -37 l-36 -15 34 -30 c18
-17 42 -30 52 -30 15 0 15 3 -6 25 l-24 25 22 16 c49 34 12 105 -55 103 -21 0
-44 -3 -50 -6z"/>
<path d="M969 373 c-14 -36 -49 -135 -49 -140 0 -1 6 -3 14 -3 13 0 56 93 56
120 0 20 18 9 24 -14 3 -13 9 -31 12 -40 5 -12 0 -16 -19 -16 -14 0 -27 -7
-31 -15 -4 -11 2 -15 24 -15 17 0 39 -5 50 -12 10 -7 22 -10 25 -7 3 4 -8 42
-23 85 -23 61 -34 80 -51 82 -15 3 -24 -4 -32 -25z"/>
<path d="M1117 394 c-4 -4 -7 -43 -7 -86 0 -63 3 -78 15 -78 12 0 15 14 15 68
l0 67 33 -65 c23 -48 37 -65 52 -65 18 0 20 8 23 83 2 68 0 82 -13 82 -12 0
-15 -14 -16 -67 l0 -68 -32 65 c-30 60 -53 81 -70 64z"/>
<path d="M1335 390 c-6 -9 -55 -150 -55 -157 0 -2 6 -3 14 -3 9 0 23 26 36 65
12 36 24 65 26 65 5 0 34 -64 34 -74 0 -3 -12 -6 -27 -8 -42 -5 -41 -28 1 -28
19 0 38 -4 41 -10 3 -5 12 -10 20 -10 11 0 8 16 -10 71 -14 39 -30 78 -36 85
-13 16 -35 18 -44 4z"/>
<path d="M1431 378 c7 -13 20 -35 30 -50 11 -14 19 -42 19 -62 0 -25 4 -36 15
-36 10 0 15 10 15 30 0 17 15 53 35 85 26 40 32 55 20 55 -8 0 -25 -16 -37
-35 -13 -19 -26 -35 -30 -35 -3 0 -16 16 -28 35 -25 40 -59 51 -39 13z"/>
<path d="M1616 392 c-8 -13 -56 -144 -56 -153 0 -5 6 -9 14 -9 9 0 23 26 36
66 23 68 30 71 48 17 10 -30 9 -32 -15 -35 -42 -5 -41 -28 1 -28 19 0 38 -4
41 -10 3 -5 13 -10 20 -10 12 0 9 15 -11 73 -15 39 -31 78 -36 85 -12 14 -34
16 -42 4z"/>
</g>
</svg>
