<?xml version="1.0" standalone="no"?>
<!DOCTYPE svg PUBLIC "-//W3C//DTD SVG 20010904//EN"
 "http://www.w3.org/TR/2001/REC-SVG-20010904/DTD/svg10.dtd">
<svg version="1.0" xmlns="http://www.w3.org/2000/svg"
 width="250.000000pt" height="250.000000pt" viewBox="0 0 250.000000 250.000000"
 preserveAspectRatio="xMidYMid meet">

<g transform="translate(0.000000,250.000000) scale(0.100000,-0.100000)"
fill="#000000" stroke="none">
<path d="M651 2202 l-454 -2 6 -44 c18 -129 98 -241 209 -292 61 -27 70 -28
263 -34 171 -4 204 -8 227 -23 89 -61 82 -179 -14 -226 -41 -19 -60 -21 -242
-21 l-197 0 7 -37 c22 -124 80 -205 180 -254 55 -27 82 -34 163 -39 102 -7
140 -21 181 -65 34 -37 36 -125 3 -171 -45 -63 -54 -64 -438 -64 l-348 0 7
-47 c19 -140 122 -249 268 -283 25 -5 228 -10 480 -10 l438 0 2 491 3 490 180
-206 c99 -114 187 -216 196 -228 16 -20 17 -20 60 22 91 87 238 128 352 99
l57 -15 0 479 c0 322 -3 478 -10 478 -19 0 -132 -41 -159 -57 -49 -31 -103
-88 -129 -138 -27 -49 -27 -54 -32 -285 l-5 -235 -282 331 c-249 292 -288 334
-330 352 -89 38 -85 38 -642 34z"/>
<path d="M2038 1116 c-99 -27 -165 -96 -187 -198 -31 -137 76 -284 221 -304
114 -16 239 66 272 177 20 65 20 92 1 155 -37 126 -179 205 -307 170z"/>
<path d="M326 504 c-12 -12 -16 -37 -16 -110 l0 -94 66 0 c71 0 98 9 114 41 9
16 8 26 -4 43 -9 15 -13 36 -9 63 4 34 2 43 -18 57 -31 21 -112 21 -133 0z
m114 -49 c0 -21 -5 -25 -28 -25 -16 0 -32 -8 -40 -20 -11 -19 -10 -20 27 -20
49 0 75 -25 46 -46 -10 -8 -36 -14 -57 -14 l-38 0 0 75 0 75 45 0 c41 0 45 -2
45 -25z"/>
<path d="M590 500 c-11 -20 -70 -184 -70 -194 0 -3 8 -6 19 -6 14 0 25 18 46
78 15 42 31 81 35 85 7 7 40 -72 40 -95 0 -4 -13 -8 -29 -8 -16 0 -34 -7 -41
-15 -11 -13 -6 -15 39 -15 39 0 51 -4 51 -15 0 -9 9 -15 25 -15 l24 0 -30 88
c-17 48 -37 97 -45 110 -18 27 -50 29 -64 2z"/>
<path d="M778 510 c-15 -9 -18 -27 -18 -110 l0 -100 64 0 c54 0 70 4 93 24 25
22 28 31 28 85 -1 80 -21 103 -97 108 -29 2 -61 -1 -70 -7z m122 -56 c27 -69
-2 -124 -65 -124 l-35 0 0 75 0 75 45 0 c40 0 47 -3 55 -26z"/>
<path d="M1003 509 c-9 -9 -13 -46 -13 -111 0 -91 1 -98 20 -98 19 0 20 7 20
91 l0 90 48 -3 c47 -3 47 -3 47 -38 0 -31 -3 -35 -30 -38 -31 -4 -55 -18 -55
-33 0 -5 6 -9 13 -9 7 0 26 -13 42 -30 17 -18 39 -30 54 -30 l25 0 -28 29 -27
29 25 25 c31 31 34 75 7 108 -14 18 -31 23 -77 27 -40 2 -63 -1 -71 -9z"/>
<path d="M1273 508 c-10 -14 -73 -184 -73 -199 0 -5 9 -9 19 -9 14 0 24 13 37
53 9 28 24 68 32 87 l14 35 19 -45 c25 -62 24 -70 -10 -70 -16 0 -34 -7 -41
-15 -11 -13 -6 -15 39 -15 39 0 51 -4 51 -15 0 -9 9 -15 25 -15 l25 0 -35 97
c-20 53 -40 102 -46 110 -14 16 -44 17 -56 1z"/>
<path d="M1452 508 c-8 -8 -12 -47 -12 -110 0 -91 1 -98 20 -98 19 0 20 7 21
93 l0 92 30 -65 c49 -111 52 -115 84 -115 l30 0 3 108 c3 102 2 107 -18 107
-19 0 -20 -6 -20 -92 l-1 -93 -34 79 c-19 43 -40 85 -46 92 -14 17 -41 18 -57
2z"/>
<path d="M1742 507 c-6 -7 -26 -56 -45 -110 -35 -96 -35 -97 -13 -97 18 0 26
13 51 85 16 47 32 85 36 85 3 0 11 -18 18 -41 7 -23 15 -47 18 -55 4 -10 -4
-14 -30 -14 -22 0 -37 -6 -41 -15 -4 -12 4 -15 40 -15 30 0 46 -5 50 -15 7
-16 44 -21 44 -6 0 16 -62 185 -73 199 -12 16 -42 16 -55 -1z"/>
<path d="M1850 513 c0 -5 18 -35 40 -68 31 -46 40 -70 40 -102 0 -36 3 -43 20
-43 17 0 20 7 20 40 0 30 11 57 45 110 42 66 44 70 22 70 -16 0 -31 -14 -54
-52 l-32 -51 -32 51 c-20 32 -39 52 -50 52 -11 0 -19 -3 -19 -7z"/>
<path d="M2100 500 c-11 -20 -70 -184 -70 -194 0 -3 9 -6 19 -6 15 0 25 18 47
78 15 42 30 81 34 85 7 8 40 -73 40 -95 0 -4 -13 -8 -29 -8 -16 0 -34 -7 -41
-15 -11 -13 -6 -15 39 -15 39 0 51 -4 51 -15 0 -9 9 -15 24 -15 l25 0 -30 87
c-16 47 -36 97 -44 110 -19 28 -51 30 -65 3z"/>
</g>
</svg>
